<svg xmlns="http://www.w3.org/2000/svg" xmlns:xlink="http://www.w3.org/1999/xlink" viewBox="0 0 590 323"><defs><style>.cls-1{fill:none;}.cls-2{fill:#31b6ff;}.cls-3{fill:#2a9ddb;}.cls-4{fill:url(#New_Pattern_Swatch_2);}</style><pattern id="New_Pattern_Swatch_2" data-name="New Pattern Swatch 2" width="83.1" height="101.19" patternTransform="translate(0 -144)" patternUnits="userSpaceOnUse" viewBox="0 0 83.09 101.19"><rect class="cls-1" width="83.1" height="101.19"/><path class="cls-2" d="M83.1,50.6h0A50.6,50.6,0,0,1,0,50.6v50.59H83.1Z"/><path class="cls-2" d="M41.55,21.72A50.53,50.53,0,0,0,83.1,0H0A50.53,50.53,0,0,0,41.55,21.72Z"/><path class="cls-3" d="M41.55,72.32A50.55,50.55,0,0,0,83.1,50.6h0V0A50.53,50.53,0,0,1,41.55,21.72,50.53,50.53,0,0,1,0,0V50.6A50.55,50.55,0,0,0,41.55,72.32Z"/></pattern></defs><g id="Layer_2" data-name="Layer 2"><g id="Layer_5" data-name="Layer 5"><path class="cls-4" d="M590,0H509.34C462.21,0,424,40.26,424,89.93v31.14c0,49.67-38.21,89.93-85.34,89.93H0V323H590Z"/></g></g></svg>