<svg xmlns="http://www.w3.org/2000/svg" viewBox="0 0 103.55 96.48"><defs><style>.cls-1{fill:#ffef9c;}.cls-2{fill:#fff;}.cls-3{fill:#bcbec0;}</style></defs><g id="Layer_2" data-name="Layer 2"><g id="Layer_8" data-name="Layer 8"><path class="cls-1" d="M91.58,0V26.83a2.64,2.64,0,0,1-2.64,2.63H77.2v12H88.94a14.63,14.63,0,0,0,14.61-14.61Z"/><path class="cls-1" d="M27.54,29.46H14.61A2.63,2.63,0,0,1,12,26.83V0L0,26.83A14.63,14.63,0,0,0,14.61,41.44H26.35v-12Z"/><path class="cls-2" d="M76,29.46H27.54v12H26.35v10a5.59,5.59,0,0,0,5.59,5.59,5.59,5.59,0,0,1,5.59,5.59V91h4.69V65.54c3.32,0,6,17.59,6,20.9v1.75h7.11V86.44c0-3.31,2.69-20.9,6-20.9V91H66V62.66a5.59,5.59,0,0,1,5.59-5.59,5.59,5.59,0,0,0,5.59-5.59v-10H76Z"/><rect class="cls-2" x="76.01" y="29.46" width="1.19" height="11.97"/><rect class="cls-2" x="26.35" y="29.46" width="1.19" height="11.97"/><path class="cls-3" d="M61.33,65.54c-3.31,0-6,0-6,20.9v1.75H48.22V86.44c0-20.9-2.68-20.9-6-20.9V91H37.53A21.14,21.14,0,0,0,66,91H61.33Z"/><rect class="cls-3" x="27.54" y="41.44" width="2.96" height="11.95" rx="1.48"/><rect class="cls-3" x="73.05" y="41.44" width="2.96" height="11.95" rx="1.48"/></g></g></svg>